<svg xmlns="http://www.w3.org/2000/svg" width="13.025" height="9.8" viewBox="0 0 13.025 9.8">
  <g id="Group_4284" data-name="Group 4284" transform="translate(-586.75 -6423)">
    <path id="Path_4166" data-name="Path 4166" d="M7.225-10a1.551,1.551,0,0,1,.45.55,1.152,1.152,0,0,1,.1.4,1.379,1.379,0,0,1-.087.45.991.991,0,0,1-.287.425l-2.9,2q-.55.375-1.075.725t-.95.637q-.425.288-.7.45a1.985,1.985,0,0,1-.3.163q-.175,0-.3-.238a3,3,0,0,1-.212-.525,3.682,3.682,0,0,1-.125-.55A3.209,3.209,0,0,1,.8-5.85a.53.53,0,0,1,.225-.475l4.2-2.75-4.25-2.85a.758.758,0,0,1-.187-.2A.522.522,0,0,1,.75-12.35a2.048,2.048,0,0,1,.063-.4q.063-.275.15-.55a2.02,2.02,0,0,1,.225-.488Q1.325-14,1.475-14a1.768,1.768,0,0,1,.288.175l.675.45q.412.275.938.637T4.425-12Q5.675-11.125,7.225-10Z" transform="translate(586 6437)" fill="#fff" opacity="0.437"/>
    <path id="Path_4167" data-name="Path 4167" d="M7.225-10a1.551,1.551,0,0,1,.45.55,1.152,1.152,0,0,1,.1.4,1.379,1.379,0,0,1-.087.45.991.991,0,0,1-.287.425l-2.9,2q-.55.375-1.075.725t-.95.637q-.425.288-.7.45a1.985,1.985,0,0,1-.3.163q-.175,0-.3-.238a3,3,0,0,1-.212-.525,3.682,3.682,0,0,1-.125-.55A3.209,3.209,0,0,1,.8-5.85a.53.53,0,0,1,.225-.475l4.2-2.75-4.25-2.85a.758.758,0,0,1-.187-.2A.522.522,0,0,1,.75-12.35a2.048,2.048,0,0,1,.063-.4q.063-.275.15-.55a2.02,2.02,0,0,1,.225-.488Q1.325-14,1.475-14a1.768,1.768,0,0,1,.288.175l.675.45q.412.275.938.637T4.425-12Q5.675-11.125,7.225-10Z" transform="translate(592 6437)" fill="#fff"/>
  </g>
</svg>
