<svg id="Group_4280" data-name="Group 4280" xmlns="http://www.w3.org/2000/svg" xmlns:xlink="http://www.w3.org/1999/xlink" width="50.558" height="50.547" viewBox="0 0 50.558 50.547">
  <defs>
    <linearGradient id="linear-gradient" x1="0.063" y1="0.049" x2="0.918" y2="1" gradientUnits="objectBoundingBox">
      <stop offset="0" stop-color="#fe7100"/>
      <stop offset="1" stop-color="#cdae00"/>
    </linearGradient>
  </defs>
  <g id="Group_4281" data-name="Group 4281" transform="translate(0 0)">
    <path id="Path_4164" data-name="Path 4164" d="M0,45.37V7.068c.034-.141.077-.28.1-.422A6.871,6.871,0,0,1,6.829.953q18.458-.018,36.917,0a6.831,6.831,0,0,1,6.8,6.793q.026,18.479,0,36.958A6.83,6.83,0,0,1,45.623,51.2c-.392.115-.794.2-1.191.292H6.122a2.452,2.452,0,0,0-.279-.087,6.8,6.8,0,0,1-5.6-4.99c-.106-.341-.166-.7-.247-1.044M26.927,23.285c0-.436.009-.873,0-1.309a.994.994,0,0,0-1.132-1.118q-2.2-.011-4.392,0c-.821,0-1.159.35-1.159,1.183q0,9.4,0,18.8c0,.814.361,1.173,1.175,1.175,1.365,0,2.731,0,4.1,0,1.109,0,1.392-.285,1.392-1.407,0-3.158-.005-6.315,0-9.473a6.059,6.059,0,0,1,.93-3.374,3.247,3.247,0,0,1,3.425-1.441,2.759,2.759,0,0,1,2.472,2.167,14.144,14.144,0,0,1,.384,3.16c.047,3.042.01,6.085.011,9.127,0,.895.335,1.231,1.215,1.232q2.2,0,4.392,0c.884,0,1.235-.346,1.234-1.222,0-3.454.04-6.908-.033-10.361a22.58,22.58,0,0,0-.492-4.346,6.311,6.311,0,0,0-4.67-5.209,10.359,10.359,0,0,0-2.433-.328c-2.51-.045-4.775.537-6.418,2.745M10.562,31.4q0,4.687,0,9.374A1.088,1.088,0,0,0,11.8,42.013q2.073.007,4.145,0c.876,0,1.285-.385,1.285-1.253q.008-9.324,0-18.649c0-.879-.389-1.258-1.273-1.264q-2.048-.013-4.1,0c-.941,0-1.3.379-1.3,1.326q0,4.613,0,9.226m7.633-16.65a4.3,4.3,0,1,0-4.354,4.28,4.3,4.3,0,0,0,4.354-4.28" transform="translate(0 -0.943)" fill="url(#linear-gradient)"/>
  </g>
</svg>
