<svg xmlns="http://www.w3.org/2000/svg" xmlns:xlink="http://www.w3.org/1999/xlink" width="50.082" height="50.084" viewBox="0 0 50.082 50.084">
  <defs>
    <linearGradient id="linear-gradient" x1="0.241" y1="0.044" x2="0.815" y2="0.949" gradientUnits="objectBoundingBox">
      <stop offset="0" stop-color="#ff6e00"/>
      <stop offset="1" stop-color="#c8b200"/>
    </linearGradient>
  </defs>
  <g id="Group_4277" data-name="Group 4277" transform="translate(0 0)">
    <g id="Group_4278" data-name="Group 4278" transform="translate(0 0)">
      <path id="Path_4163" data-name="Path 4163" d="M0,27.473v-3.13c.092-.708.171-1.418.279-2.124A24.27,24.27,0,0,1,9.2,6.543,24.392,24.392,0,0,1,30.4,1.46,25.033,25.033,0,0,1,50.077,25.243a24.491,24.491,0,0,1-4.183,14.5A24.643,24.643,0,0,1,29.4,50.556c-.924.172-1.865.261-2.8.389h-3.13a2.082,2.082,0,0,0-.327-.077,24.181,24.181,0,0,1-11.956-4.115A24.674,24.674,0,0,1,.39,30.271c-.172-.925-.262-1.865-.39-2.8m24.7,6.371c.148.1.283.194.413.29q2.774,2.043,5.547,4.087c1.335.982,2.256.634,2.6-.977q1.9-8.928,3.789-17.857a11.432,11.432,0,0,0,.308-2.357,1.106,1.106,0,0,0-1.48-1.044,4.607,4.607,0,0,0-.6.2q-8.65,3.335-17.3,6.673c-2.276.879-4.554,1.752-6.822,2.65-.451.178-.971.431-.941,1s.593.719,1.058.867c1.86.589,3.728,1.158,5.585,1.758a1.016,1.016,0,0,0,.951-.125q6.749-4.269,13.513-8.515a3.229,3.229,0,0,1,.726-.392,1.551,1.551,0,0,1,.58.055,2.409,2.409,0,0,1-.255.431,7.777,7.777,0,0,1-.573.531q-5.279,4.766-10.562,9.527a1.12,1.12,0,0,0-.411.878c-.02.716-.1,1.43-.145,2.145-.084,1.215-.165,2.431-.248,3.659a1.409,1.409,0,0,0,1.162-.492L24.7,33.844" transform="translate(0 -0.861)" fill="url(#linear-gradient)"/>
    </g>
  </g>
</svg>
